<svg id="visual" viewBox="0 0 900 600" width="900" height="600" xmlns="http://www.w3.org/2000/svg" xmlns:xlink="http://www.w3.org/1999/xlink" version="1.1"><path d="M0 151L82 151L82 157L164 157L164 103L245 103L245 49L327 49L327 61L409 61L409 85L491 85L491 115L573 115L573 61L655 61L655 145L736 145L736 115L818 115L818 85L900 85L900 169L900 0L900 0L818 0L818 0L736 0L736 0L655 0L655 0L573 0L573 0L491 0L491 0L409 0L409 0L327 0L327 0L245 0L245 0L164 0L164 0L82 0L82 0L0 0Z" fill="#fa7268"></path><path d="M0 277L82 277L82 295L164 295L164 193L245 193L245 295L327 295L327 259L409 259L409 403L491 403L491 313L573 313L573 289L655 289L655 355L736 355L736 271L818 271L818 241L900 241L900 373L900 167L900 83L818 83L818 113L736 113L736 143L655 143L655 59L573 59L573 113L491 113L491 83L409 83L409 59L327 59L327 47L245 47L245 101L164 101L164 155L82 155L82 149L0 149Z" fill="#ea5e66"></path><path d="M0 331L82 331L82 337L164 337L164 247L245 247L245 415L327 415L327 343L409 343L409 445L491 445L491 361L573 361L573 415L655 415L655 421L736 421L736 343L818 343L818 343L900 343L900 427L900 371L900 239L818 239L818 269L736 269L736 353L655 353L655 287L573 287L573 311L491 311L491 401L409 401L409 257L327 257L327 293L245 293L245 191L164 191L164 293L82 293L82 275L0 275Z" fill="#d84a64"></path><path d="M0 553L82 553L82 505L164 505L164 505L245 505L245 547L327 547L327 541L409 541L409 559L491 559L491 547L573 547L573 529L655 529L655 505L736 505L736 553L818 553L818 505L900 505L900 565L900 425L900 341L818 341L818 341L736 341L736 419L655 419L655 413L573 413L573 359L491 359L491 443L409 443L409 341L327 341L327 413L245 413L245 245L164 245L164 335L82 335L82 329L0 329Z" fill="#c53762"></path><path d="M0 601L82 601L82 601L164 601L164 601L245 601L245 601L327 601L327 601L409 601L409 601L491 601L491 601L573 601L573 601L655 601L655 601L736 601L736 601L818 601L818 601L900 601L900 601L900 563L900 503L818 503L818 551L736 551L736 503L655 503L655 527L573 527L573 545L491 545L491 557L409 557L409 539L327 539L327 545L245 545L245 503L164 503L164 503L82 503L82 551L0 551Z" fill="#b0235f"></path></svg>